<?xml version="1.0" encoding="UTF-8"?>
<svg id="Capa_1" xmlns="http://www.w3.org/2000/svg" version="1.1" viewBox="0 0 31.88 32">
  <!-- Generator: Adobe Illustrator 30.0.0, SVG Export Plug-In . SVG Version: 2.1.1 Build 123)  -->
  <defs>
    <style>
      .st0 {
        fill: #419037;
      }
    </style>
  </defs>
  <path class="st0" d="M14.31,10.34h0c.73-1.07.44-2.53-.63-3.26s-2.53-.44-3.26.63h0S1,21.66,1,21.66h0c-.72,1.08-.43,2.53.64,3.25,1.07.72,2.52.44,3.25-.62h0s9.41-13.95,9.41-13.95h0Z"/>
  <path class="st0" d="M31.07,21.67h0s-9.41-13.95-9.41-13.95h0c-.16-.24-.38-.46-.64-.63-1.07-.73-2.53-.44-3.26.63h0s-9.41,13.95-9.41,13.95h0c-.72,1.08-.43,2.53.64,3.25,1.07.72,2.52.44,3.25-.62h0s7.46-11.05,7.46-11.05l7.46,11.06h0c.73,1.06,2.18,1.34,3.25.62,1.07-.72,1.36-2.17.64-3.25Z"/>
  <circle class="st0" cx="19.65" cy="21.97" r="3.14"/>
</svg>