<?xml version="1.0" encoding="UTF-8"?>
<svg id="Capa_1" xmlns="http://www.w3.org/2000/svg" version="1.1" viewBox="0 0 500 500">
  <!-- Generator: Adobe Illustrator 30.0.0, SVG Export Plug-In . SVG Version: 2.1.1 Build 123)  -->
  <defs>
    <style>
      .st0 {
        fill: #419037;
      }

      .st1 {
        fill: #f8ef02;
      }

      .st2 {
        fill: #8174b4;
      }

      .st3 {
        fill: #05709a;
      }

      .st4 {
        fill: #b0cc21;
      }
    </style>
  </defs>
  <path class="st1" d="M86.22,185.77c.74-3.76,1.54-7.43,2.39-11.01-2.31,6.17-3.07,10.19-2.39,11.01Z"/>
  <path class="st4" d="M85.26,319.98c-2.07-3.23-4.03-6.43-5.9-9.6,2.61,6.05,4.84,9.48,5.9,9.6Z"/>
  <path class="st3" d="M410.32,317.87c-.74,3.76-1.53,7.43-2.38,11.01,2.3-6.18,3.06-10.19,2.38-11.01Z"/>
  <path class="st2" d="M414.95,185.77c2.07,3.23,4.02,6.43,5.88,9.61-2.6-6.05-4.82-9.48-5.88-9.61Z"/>
  <path class="st0" d="M234.73,200.04h0c6.4-9.48,3.9-22.36-5.58-28.76s-22.36-3.9-28.76,5.58l-.04-.03-83.07,123.09.05.03c-6.32,9.47-3.81,22.28,5.64,28.66,9.45,6.38,22.27,3.91,28.69-5.49l.05.03,83.07-123.09-.04-.03Z"/>
  <path class="st0" d="M382.67,300.05l.05-.03-83.07-123.09-.02.02c-1.45-2.15-3.32-4.07-5.6-5.61-9.48-6.4-22.36-3.9-28.76,5.58l-.04-.03-83.07,123.09.05.03c-6.32,9.47-3.81,22.28,5.64,28.66,9.45,6.38,22.27,3.91,28.69-5.49l.05.03,65.84-97.57,65.87,97.61.05-.03c6.42,9.41,19.24,11.87,28.69,5.49,9.45-6.38,11.96-19.19,5.64-28.66Z"/>
  <circle class="st0" cx="281.93" cy="302.65" r="27.71"/>
</svg>