<?xml version="1.0" encoding="UTF-8"?>
<svg id="Capa_1" xmlns="http://www.w3.org/2000/svg" version="1.1" viewBox="0 0 500 500">
  <!-- Generator: Adobe Illustrator 30.0.0, SVG Export Plug-In . SVG Version: 2.1.1 Build 123)  -->
  <defs>
    <style>
      .st0 {
        fill: #f8ef02;
      }

      .st1 {
        fill: #009947;
      }

      .st2 {
        fill: #8174b4;
      }

      .st3 {
        fill: #05709a;
      }

      .st4 {
        fill: #d82522;
      }

      .st5 {
        fill: #03a1da;
      }

      .st6 {
        fill: #b0cc21;
      }

      .st7 {
        fill: #ec821e;
      }
    </style>
  </defs>
  <path class="st4" d="M323.2,84.99c3.74.85,7.38,1.77,10.93,2.72-6.1-2.49-10.09-3.38-10.93-2.72Z"/>
  <path class="st4" d="M468.35,148.37c0-10.71-8.68-19.4-19.4-19.4-9.63,0-17.61,7.02-19.13,16.22-19.65-24.29-49.99-45.13-95.68-57.47,33.86,13.82,132.97,77.13,123.09,201.93,7.28-30.66,10.21-79.27-12.8-122.41,1.45.35,2.97.54,4.53.54,10.71,0,19.4-8.68,19.4-19.4Z"/>
  <path class="st7" d="M186.35,87.46c3.18-2.15,6.33-4.19,9.45-6.13-5.98,2.76-9.35,5.07-9.45,6.13Z"/>
  <path class="st7" d="M329.18,54.94c1.25-.83,2.42-1.81,3.49-2.95,7.31-7.83,6.88-20.11-.95-27.42-7.83-7.31-20.11-6.88-27.42.95-6.57,7.04-6.89,17.67-1.2,25.05-31.16-2.2-67.1,5.76-107.3,30.75,33.21-15.32,147.11-44.6,231.61,47.77-17.45-26.24-50.99-61.55-98.23-74.15Z"/>
  <path class="st0" d="M86.22,185.77c.74-3.76,1.54-7.43,2.39-11.01-2.31,6.17-3.07,10.19-2.39,11.01Z"/>
  <path class="st0" d="M164.76,62.12c.3-1.46.45-2.99.4-4.55-.32-10.71-9.27-19.13-19.97-18.8-10.71.32-19.13,9.27-18.8,19.97.29,9.62,7.55,17.39,16.79,18.63-23.68,20.38-43.6,51.33-54.55,97.38,12.79-34.26,73.07-135.24,198.11-129.14-30.86-6.35-79.55-7.81-121.97,16.5Z"/>
  <path class="st6" d="M85.26,319.98c-2.07-3.23-4.03-6.43-5.9-9.6,2.61,6.05,4.84,9.48,5.9,9.6Z"/>
  <path class="st6" d="M132.85,80.03c-26.66,16.79-62.79,49.45-76.56,96.37-.79-1.27-1.74-2.46-2.86-3.56-7.65-7.5-19.93-7.38-27.43.27-7.5,7.65-7.38,19.93.27,27.43,6.88,6.74,17.49,7.32,25.01,1.82-2.97,31.1,4.1,67.22,28.08,108.03-14.5-33.57-40.95-148.17,53.48-230.36Z"/>
  <path class="st1" d="M179.06,420.09c-3.74-.85-7.38-1.77-10.93-2.72,6.1,2.49,10.09,3.38,10.93,2.72Z"/>
  <path class="st1" d="M45.04,215.44c-7.28,30.66-10.21,79.27,12.8,122.41-1.45-.35-2.97-.54-4.53-.54-10.71,0-19.4,8.68-19.4,19.4s8.68,19.4,19.4,19.4c9.63,0,17.61-7.02,19.13-16.22,19.65,24.29,49.99,45.13,95.68,57.47-33.86-13.82-132.97-77.13-123.09-201.93Z"/>
  <path class="st5" d="M313.7,412.75c-3.18,2.15-6.33,4.18-9.46,6.12,5.99-2.75,9.36-5.06,9.46-6.12Z"/>
  <path class="st5" d="M72.71,370.73c17.41,26.27,50.9,61.63,98.12,74.31-1.25.82-2.42,1.8-3.49,2.94-7.32,7.82-6.92,20.1.91,27.42s20.1,6.92,27.42-.91c6.58-7.03,6.91-17.66,1.24-25.05,31.16,2.25,67.11-5.66,107.35-30.58-33.23,15.27-147.18,44.37-231.53-48.13Z"/>
  <path class="st3" d="M410.32,317.87c-.74,3.76-1.53,7.43-2.38,11.01,2.3-6.18,3.06-10.19,2.38-11.01Z"/>
  <path class="st3" d="M353.53,426.34c23.65-20.41,43.52-51.4,54.41-97.46-12.74,34.28-72.87,135.36-197.92,129.44,30.87,6.31,79.56,7.69,121.95-16.69-.3,1.46-.44,2.99-.39,4.55.34,10.71,9.3,19.11,20,18.77,10.71-.34,19.11-9.3,18.77-20-.31-9.62-7.57-17.38-16.82-18.61Z"/>
  <path class="st2" d="M414.95,185.77c2.07,3.23,4.02,6.43,5.88,9.61-2.6-6.05-4.82-9.48-5.88-9.61Z"/>
  <path class="st2" d="M473.76,305.31c-6.86-6.75-17.48-7.35-25.01-1.86,3.02-31.1-4-67.23-27.92-108.07,14.45,33.6,40.72,148.23-53.84,230.27,26.69-16.75,62.87-49.36,76.71-96.25.79,1.27,1.74,2.47,2.85,3.56,7.64,7.51,19.92,7.41,27.43-.23,7.51-7.64,7.41-19.92-.23-27.43Z"/>
</svg>